<svg xmlns="http://www.w3.org/2000/svg" version="1.1" xmlns:xlink="http://www.w3.org/1999/xlink" xmlns:svgjs="http://svgjs.dev/svgjs" viewBox="0 0 2400 800"><defs><linearGradient x1="50%" y1="0%" x2="50%" y2="100%" id="sssurf-grad"><stop stop-color="hsl(208, 77%, 50%)" stop-opacity="1" offset="0%"></stop><stop stop-color="hsl(208, 74%, 93%)" stop-opacity="1" offset="100%"></stop></linearGradient></defs><g fill="url(#sssurf-grad)" transform="matrix(1,0,0,1,10.8282470703125,225.0117859840393)"><path d="M-10,10C33.75,13.958333333333332,114.58333333333334,34.416666666666664,200,29C285.41666666666663,23.583333333333336,316.66666666666663,-17.875,400,-16C483.33333333333337,-14.125,516.6666666666666,40.916666666666664,600,38C683.3333333333334,35.083333333333336,716.6666666666666,-31.458333333333332,800,-30C883.3333333333334,-28.541666666666668,916.6666666666666,43.958333333333336,1000,45C1083.3333333333333,46.041666666666664,1116.6666666666667,-23.333333333333332,1200,-25C1283.3333333333333,-26.666666666666668,1316.6666666666667,32.833333333333336,1400,37C1483.3333333333333,41.166666666666664,1516.6666666666667,-3.3333333333333335,1600,-5C1683.3333333333333,-6.666666666666666,1716.6666666666667,31.708333333333332,1800,29C1883.3333333333333,26.291666666666668,1916.6666666666667,-22.166666666666668,2000,-18C2083.3333333333335,-13.833333333333332,2118.75,43.166666666666664,2200,49C2281.25,54.833333333333336,2296.25,-63.125,2390,10C2483.75,83.125,3252.0833333333335,214.58333333333331,2650,400C2047.9166666666665,585.4166666666667,156.25,795.8333333333334,-500,900" transform="matrix(1,0,0,1,0,35)" opacity="0.05"></path><path d="M-10,10C33.75,13.958333333333332,114.58333333333334,34.416666666666664,200,29C285.41666666666663,23.583333333333336,316.66666666666663,-17.875,400,-16C483.33333333333337,-14.125,516.6666666666666,40.916666666666664,600,38C683.3333333333334,35.083333333333336,716.6666666666666,-31.458333333333332,800,-30C883.3333333333334,-28.541666666666668,916.6666666666666,43.958333333333336,1000,45C1083.3333333333333,46.041666666666664,1116.6666666666667,-23.333333333333332,1200,-25C1283.3333333333333,-26.666666666666668,1316.6666666666667,32.833333333333336,1400,37C1483.3333333333333,41.166666666666664,1516.6666666666667,-3.3333333333333335,1600,-5C1683.3333333333333,-6.666666666666666,1716.6666666666667,31.708333333333332,1800,29C1883.3333333333333,26.291666666666668,1916.6666666666667,-22.166666666666668,2000,-18C2083.3333333333335,-13.833333333333332,2118.75,43.166666666666664,2200,49C2281.25,54.833333333333336,2296.25,-63.125,2390,10C2483.75,83.125,3252.0833333333335,214.58333333333331,2650,400C2047.9166666666665,585.4166666666667,156.25,795.8333333333334,-500,900" transform="matrix(1,0,0,1,0,70)" opacity="0.21"></path><path d="M-10,10C33.75,13.958333333333332,114.58333333333334,34.416666666666664,200,29C285.41666666666663,23.583333333333336,316.66666666666663,-17.875,400,-16C483.33333333333337,-14.125,516.6666666666666,40.916666666666664,600,38C683.3333333333334,35.083333333333336,716.6666666666666,-31.458333333333332,800,-30C883.3333333333334,-28.541666666666668,916.6666666666666,43.958333333333336,1000,45C1083.3333333333333,46.041666666666664,1116.6666666666667,-23.333333333333332,1200,-25C1283.3333333333333,-26.666666666666668,1316.6666666666667,32.833333333333336,1400,37C1483.3333333333333,41.166666666666664,1516.6666666666667,-3.3333333333333335,1600,-5C1683.3333333333333,-6.666666666666666,1716.6666666666667,31.708333333333332,1800,29C1883.3333333333333,26.291666666666668,1916.6666666666667,-22.166666666666668,2000,-18C2083.3333333333335,-13.833333333333332,2118.75,43.166666666666664,2200,49C2281.25,54.833333333333336,2296.25,-63.125,2390,10C2483.75,83.125,3252.0833333333335,214.58333333333331,2650,400C2047.9166666666665,585.4166666666667,156.25,795.8333333333334,-500,900" transform="matrix(1,0,0,1,0,105)" opacity="0.37"></path><path d="M-10,10C33.75,13.958333333333332,114.58333333333334,34.416666666666664,200,29C285.41666666666663,23.583333333333336,316.66666666666663,-17.875,400,-16C483.33333333333337,-14.125,516.6666666666666,40.916666666666664,600,38C683.3333333333334,35.083333333333336,716.6666666666666,-31.458333333333332,800,-30C883.3333333333334,-28.541666666666668,916.6666666666666,43.958333333333336,1000,45C1083.3333333333333,46.041666666666664,1116.6666666666667,-23.333333333333332,1200,-25C1283.3333333333333,-26.666666666666668,1316.6666666666667,32.833333333333336,1400,37C1483.3333333333333,41.166666666666664,1516.6666666666667,-3.3333333333333335,1600,-5C1683.3333333333333,-6.666666666666666,1716.6666666666667,31.708333333333332,1800,29C1883.3333333333333,26.291666666666668,1916.6666666666667,-22.166666666666668,2000,-18C2083.3333333333335,-13.833333333333332,2118.75,43.166666666666664,2200,49C2281.25,54.833333333333336,2296.25,-63.125,2390,10C2483.75,83.125,3252.0833333333335,214.58333333333331,2650,400C2047.9166666666665,585.4166666666667,156.25,795.8333333333334,-500,900" transform="matrix(1,0,0,1,0,140)" opacity="0.53"></path><path d="M-10,10C33.75,13.958333333333332,114.58333333333334,34.416666666666664,200,29C285.41666666666663,23.583333333333336,316.66666666666663,-17.875,400,-16C483.33333333333337,-14.125,516.6666666666666,40.916666666666664,600,38C683.3333333333334,35.083333333333336,716.6666666666666,-31.458333333333332,800,-30C883.3333333333334,-28.541666666666668,916.6666666666666,43.958333333333336,1000,45C1083.3333333333333,46.041666666666664,1116.6666666666667,-23.333333333333332,1200,-25C1283.3333333333333,-26.666666666666668,1316.6666666666667,32.833333333333336,1400,37C1483.3333333333333,41.166666666666664,1516.6666666666667,-3.3333333333333335,1600,-5C1683.3333333333333,-6.666666666666666,1716.6666666666667,31.708333333333332,1800,29C1883.3333333333333,26.291666666666668,1916.6666666666667,-22.166666666666668,2000,-18C2083.3333333333335,-13.833333333333332,2118.75,43.166666666666664,2200,49C2281.25,54.833333333333336,2296.25,-63.125,2390,10C2483.75,83.125,3252.0833333333335,214.58333333333331,2650,400C2047.9166666666665,585.4166666666667,156.25,795.8333333333334,-500,900" transform="matrix(1,0,0,1,0,175)" opacity="0.68"></path><path d="M-10,10C33.75,13.958333333333332,114.58333333333334,34.416666666666664,200,29C285.41666666666663,23.583333333333336,316.66666666666663,-17.875,400,-16C483.33333333333337,-14.125,516.6666666666666,40.916666666666664,600,38C683.3333333333334,35.083333333333336,716.6666666666666,-31.458333333333332,800,-30C883.3333333333334,-28.541666666666668,916.6666666666666,43.958333333333336,1000,45C1083.3333333333333,46.041666666666664,1116.6666666666667,-23.333333333333332,1200,-25C1283.3333333333333,-26.666666666666668,1316.6666666666667,32.833333333333336,1400,37C1483.3333333333333,41.166666666666664,1516.6666666666667,-3.3333333333333335,1600,-5C1683.3333333333333,-6.666666666666666,1716.6666666666667,31.708333333333332,1800,29C1883.3333333333333,26.291666666666668,1916.6666666666667,-22.166666666666668,2000,-18C2083.3333333333335,-13.833333333333332,2118.75,43.166666666666664,2200,49C2281.25,54.833333333333336,2296.25,-63.125,2390,10C2483.75,83.125,3252.0833333333335,214.58333333333331,2650,400C2047.9166666666665,585.4166666666667,156.25,795.8333333333334,-500,900" transform="matrix(1,0,0,1,0,210)" opacity="0.84"></path><path d="M-10,10C33.75,13.958333333333332,114.58333333333334,34.416666666666664,200,29C285.41666666666663,23.583333333333336,316.66666666666663,-17.875,400,-16C483.33333333333337,-14.125,516.6666666666666,40.916666666666664,600,38C683.3333333333334,35.083333333333336,716.6666666666666,-31.458333333333332,800,-30C883.3333333333334,-28.541666666666668,916.6666666666666,43.958333333333336,1000,45C1083.3333333333333,46.041666666666664,1116.6666666666667,-23.333333333333332,1200,-25C1283.3333333333333,-26.666666666666668,1316.6666666666667,32.833333333333336,1400,37C1483.3333333333333,41.166666666666664,1516.6666666666667,-3.3333333333333335,1600,-5C1683.3333333333333,-6.666666666666666,1716.6666666666667,31.708333333333332,1800,29C1883.3333333333333,26.291666666666668,1916.6666666666667,-22.166666666666668,2000,-18C2083.3333333333335,-13.833333333333332,2118.75,43.166666666666664,2200,49C2281.25,54.833333333333336,2296.25,-63.125,2390,10C2483.75,83.125,3252.0833333333335,214.58333333333331,2650,400C2047.9166666666665,585.4166666666667,156.25,795.8333333333334,-500,900" transform="matrix(1,0,0,1,0,245)" opacity="1"></path></g></svg>