<svg xmlns="http://www.w3.org/2000/svg" version="1.1" xmlns:xlink="http://www.w3.org/1999/xlink" xmlns:svgjs="http://svgjs.dev/svgjs" viewBox="0 0 800 800" opacity="1"><defs><symbol id="bbburst-shape-1" viewBox="0 0 194 167"><path d="m97 0 96.129 166.5H.871L97 0Z"></path></symbol><symbol id="bbburst-shape-4" viewBox="0 0 149 143"><path d="M71.647 2.781c.898-2.764 4.808-2.764 5.706 0l15.445 47.534a3 3 0 0 0 2.853 2.073h49.98c2.906 0 4.115 3.719 1.764 5.427L106.96 87.193a2.999 2.999 0 0 0-1.09 3.354l15.445 47.534c.898 2.764-2.266 5.062-4.617 3.354l-40.435-29.378a3 3 0 0 0-3.526 0l-40.435 29.378c-2.351 1.708-5.515-.59-4.617-3.354L43.13 90.547a3 3 0 0 0-1.09-3.354L1.605 57.815c-2.35-1.708-1.142-5.427 1.764-5.427h49.98a3 3 0 0 0 2.853-2.073L71.647 2.781Z"></path></symbol><symbol id="bbburst-shape-8" viewBox="0 0 87 168"><path d="m12 12 31.2546 18.0749c16.4102 9.4902 20.014 31.6325 7.4603 45.8369L36.3296 92.1884c-12.5684 14.2206-8.9394 36.3916 7.5068 45.8636L75 156" stroke-width="14" stroke-linecap="round" stroke-linejoin="round"></path></symbol><symbol id="bbburst-shape-9" viewBox="0 0 182 172"><path d="M13.5809 69.845 91 13.5967l77.419 56.2483-29.571 91.012H43.1524L13.5809 69.845Z" stroke-width="22"></path></symbol><symbol id="bbburst-shape-10" viewBox="0 0 145 145"><circle cx="72.5" cy="72.5" r="61.5" fill="none" stroke-width="22"></circle></symbol><symbol id="bbburst-shape-11" viewBox="0 0 194 167"><path d="M10.398 161 97 11l86.603 150H10.397Z" stroke-width="11"></path></symbol><symbol id="bbburst-shape-13" viewBox="0 0 159 159"><path stroke-width="22" d="M11 11h137v137H11z"></path></symbol><symbol id="bbburst-shape-14" viewBox="0 0 185 109"><path d="M168 16.5C168 58.1975 134.197 92 92.5 92 50.8025 92 17 58.1975 17 16.5" stroke-width="33" stroke-linecap="round"></path></symbol></defs><use xlink:href="#bbburst-shape-9" width="13.314476725132288" opacity="0.8453372551301168" transform="matrix(0.969478216328668,-0.245177462390376,0.245177462390376,0.969478216328668,31.225278772049407,-312.1755821008066)" fill="none" stroke="#00a19d"></use><use xlink:href="#bbburst-shape-9" width="27.843055987349146" opacity="0.4231014003265162" transform="matrix(0.9512737458695415,-0.3083476291774122,0.3083476291774122,0.9512737458695415,438.94177393035534,-337.440652734719)" fill="none" stroke="#00a19d"></use><use xlink:href="#bbburst-shape-14" width="27.223807501773678" opacity="0.4783677347404922" transform="matrix(0.9600924350092626,-0.27968288513597855,0.27968288513597855,0.9600924350092626,-7.8108981890950275,128.1192159031744)" fill="none" stroke="#00a19d"></use><use xlink:href="#bbburst-shape-8" width="17.79070387238223" opacity="0.8261330883131432" transform="matrix(0.7351983312092293,-0.677852058923748,0.677852058923748,0.7351983312092293,-219.52918510009042,-124.19567890958925)" fill="none" stroke="#00a19d"></use><use xlink:href="#bbburst-shape-10" width="16.85176108056868" opacity="0.7767292021504579" transform="matrix(0.9764751922137984,0.21562977296984176,-0.21562977296984176,0.9764751922137984,284.15182185754225,-306.60914464609965)" fill="none" stroke="#00a19d"></use><use xlink:href="#bbburst-shape-14" width="14.477055419229576" opacity="0.7158237951832235" transform="matrix(0.8833459018842208,0.4687216846107641,-0.4687216846107641,0.8833459018842208,460.37875756555115,-304.260976466012)" fill="none" stroke="#ffa6d5"></use><use xlink:href="#bbburst-shape-14" width="16.02430594089781" opacity="0.753295311158942" transform="matrix(0.7488879204239997,-0.6626966746883655,0.6626966746883655,0.7488879204239997,-245.57034224587542,-48.84544492523071)" fill="none" stroke="#ffa6d5"></use><use xlink:href="#bbburst-shape-8" width="62.968213364109644" opacity="-0.011396671147387405" transform="matrix(0.7588563174611919,-0.6512580820605905,0.6512580820605905,0.7588563174611919,441.65150173187374,421.07785928134)" fill="none" stroke="#2c2891"></use><use xlink:href="#bbburst-shape-13" width="17.291137354208324" opacity="0.7747476181868277" transform="matrix(0.9922983783988504,0.1238706108284444,-0.1238706108284444,0.9922983783988504,190.6978621121522,-229.7048478785169)" fill="none" stroke="#00a19d"></use><use xlink:href="#bbburst-shape-14" width="34.122798584009004" opacity="0.553101788181074" transform="matrix(0.8262492848773831,0.5633046415924627,-0.5633046415924627,0.8262492848773831,478.51217839064327,18.063949043269417)" fill="none" stroke="#00a19d"></use><use xlink:href="#bbburst-shape-4" width="6.6386960084588384" opacity="0.9811294411542905" transform="matrix(0.9486293779540212,0.31638948036015163,-0.31638948036015163,0.9486293779540212,131.37603882859688,-363.3918231985905)" fill="#ff5c58"></use><use xlink:href="#bbburst-shape-4" width="19.444871622985975" opacity="0.565501562162267" transform="matrix(0.9887797475916887,0.14938075763804504,-0.14938075763804504,0.9887797475916887,483.538134822528,-366.0968214357437)" fill="#00a19d"></use><use xlink:href="#bbburst-shape-14" width="16.953599105406674" opacity="0.6534136955843635" transform="matrix(0.7693621646723727,0.6388128517575714,-0.6388128517575714,0.7693621646723727,594.8926267936688,-291.4030693905835)" fill="none" stroke="#00a19d"></use><use xlink:href="#bbburst-shape-9" width="27.922861836760827" opacity="0.21252775525791923" transform="matrix(0.9994799882768639,0.03224520172180647,-0.03224520172180647,0.9994799882768639,206.32972217150032,359.24474051523924)" fill="none" stroke="#2c2891"></use><use xlink:href="#bbburst-shape-1" width="10.054999368268092" opacity="0.9033977556604783" transform="matrix(0.9523965819118277,-0.3048618552109581,0.3048618552109581,0.9523965819118277,-31.907931100947593,-360.948367637498)" fill="#2c2891"></use><use xlink:href="#bbburst-shape-8" width="33.732099429552704" opacity="0.37528123197394403" transform="matrix(0.9469880059556322,0.32126891629315074,-0.32126891629315074,0.9469880059556322,724.2084662872464,-257.2103255624831)" fill="none" stroke="#ffbd9b"></use><use xlink:href="#bbburst-shape-9" width="24.12339527356231" opacity="0.6994738467287055" transform="matrix(0.991483804189325,-0.13023005041181587,0.13023005041181587,0.991483804189325,58.90558111739655,-120.97155308235597)" fill="none" stroke="#2c2891"></use><use xlink:href="#bbburst-shape-8" width="48.40342375432422" opacity="0.397152004863776" transform="matrix(0.8440051457978386,0.5363350761107921,-0.5363350761107921,0.8440051457978386,647.8901630549211,46.28943135159477)" fill="none" stroke="#ffa6d5"></use><use xlink:href="#bbburst-shape-10" width="39.27121202410342" opacity="0.4080282672179313" transform="matrix(0.8083333234930488,-0.5887250955502765,0.5887250955502765,0.8083333234930488,256.32217884148383,-7.327703375137389)" fill="none" stroke="#ffa6d5"></use><use xlink:href="#bbburst-shape-13" width="20.826906010392157" opacity="0.7063892846194915" transform="matrix(0.9628347632928753,0.2700911301667509,-0.2700911301667509,0.9628347632928753,172.44995198794928,-103.92897089517066)" fill="none" stroke="#ffa6d5"></use><use xlink:href="#bbburst-shape-14" width="30.467915085187506" opacity="0.4818987659330647" transform="matrix(0.9041332333112985,-0.4272506248351862,0.4272506248351862,0.9041332333112985,3.407849647281921,127.65636249884972)" fill="none" stroke="#00a19d"></use><use xlink:href="#bbburst-shape-13" width="40.51308075962837" opacity="0.3945827301401805" transform="matrix(0.88710553557366,0.4615666460594502,-0.4615666460594502,0.88710553557366,360.5598046668706,209.33376243594853)" fill="none" stroke="#ffa6d5"></use><use xlink:href="#bbburst-shape-9" width="6.291985343933755" opacity="0.9721349572470351" transform="matrix(0.972835023272204,0.23149949782876508,-0.23149949782876508,0.972835023272204,115.8027116577325,-380.56506124127367)" fill="none" stroke="#ff5c58"></use><use xlink:href="#bbburst-shape-11" width="43.649380626020324" opacity="0.18083548846693365" transform="matrix(0.9818153454588553,-0.18983842451281727,0.18983842451281727,0.9818153454588553,644.8539957105855,-42.745821938934625)" fill="none" stroke="#ff5c58"></use><use xlink:href="#bbburst-shape-4" width="27.1970880005874" opacity="0.6450025369564035" transform="matrix(0.7693574592426642,0.6388185187576142,-0.6388185187576142,0.7693574592426642,368.83509616808567,16.305547435066615)" fill="#00a19d"></use><use xlink:href="#bbburst-shape-13" width="13.13782690331974" opacity="0.9022678452843043" transform="matrix(0.9799463677915436,-0.1992614269048594,0.1992614269048594,0.9799463677915436,-5.4489753849357925,-335.5311415388865)" fill="none" stroke="#00a19d"></use><use xlink:href="#bbburst-shape-13" width="28.09533915272505" opacity="0.4926420413793754" transform="matrix(0.8005806071379654,-0.5992250758059168,0.5992250758059168,0.8005806071379654,-213.63855430902765,194.17061486888974)" fill="none" stroke="#ffa6d5"></use><use xlink:href="#bbburst-shape-9" width="29.300203692106383" opacity="0.5001734769917203" transform="matrix(0.7225084798152339,0.6913620589785643,-0.6913620589785643,0.7225084798152339,614.7641117032106,58.85593624287213)" fill="none" stroke="#ffa6d5"></use><use xlink:href="#bbburst-shape-13" width="43.184526618146236" opacity="0.38080024775462584" transform="matrix(0.9972828164733379,0.0736680661277774,-0.0736680661277774,0.9972828164733379,588.3423739208398,-184.78628482377505)" fill="none" stroke="#00a19d"></use><use xlink:href="#bbburst-shape-14" width="19.539430026965412" opacity="0.6904348402528511" transform="matrix(0.9945056512963086,0.10468289993931713,-0.10468289993931713,0.9945056512963086,305.25829496717773,-253.04264107562457)" fill="none" stroke="#00a19d"></use><use xlink:href="#bbburst-shape-1" width="49.882110007275884" opacity="0.0682749023438437" transform="matrix(0.8609441159421521,0.5086995471047582,-0.5086995471047582,0.8609441159421521,750.0202822494326,381.52617341963776)" fill="#00a19d"></use><use xlink:href="#bbburst-shape-14" width="19.54214920866178" opacity="0.5909916380194076" transform="matrix(0.8542053615563465,-0.5199357655406976,0.5199357655406976,0.8542053615563465,-186.6997124912976,71.35606678777503)" fill="none" stroke="#2c2891"></use><use xlink:href="#bbburst-shape-1" width="54.75482441167409" opacity="0.2944881779488424" transform="matrix(0.999201848274461,-0.03994579333172755,0.03994579333172755,0.999201848274461,430.594291097663,124.11297912380138)" fill="#ffa6d5"></use><use xlink:href="#bbburst-shape-10" width="25.364441988503476" opacity="0.5364681501107547" transform="matrix(0.9517571077967546,-0.30685242016050124,0.30685242016050124,0.9517571077967546,-5.738260696000822,68.38745776268496)" fill="none" stroke="#00a19d"></use><use xlink:href="#bbburst-shape-14" width="10.987128207374997" opacity="0.7962186039085971" transform="matrix(0.95919728419455,-0.2827376345550759,0.2827376345550759,0.95919728419455,84.82182211133137,-366.4940987979181)" fill="none" stroke="#ffbd9b"></use><use xlink:href="#bbburst-shape-8" width="11.256153487195668" opacity="0.7666496699968315" transform="matrix(0.8919226395404639,-0.45218801960597294,0.45218801960597294,0.8919226395404639,46.788385932061146,-336.59455324778196)" fill="none" stroke="#2c2891"></use><use xlink:href="#bbburst-shape-8" width="47.92598529695838" opacity="0.42948711043857946" transform="matrix(0.9351474003491025,-0.3542588596214855,0.3542588596214855,0.9351474003491025,185.7243402022219,85.09538145298922)" fill="none" stroke="#ffa6d5"></use><use xlink:href="#bbburst-shape-13" width="21.370612002213704" opacity="0.7453872048795095" transform="matrix(0.9183346442082758,-0.39580485248018293,0.39580485248018293,0.9183346442082758,-36.334268303785564,-145.25979775815995)" fill="none" stroke="#00a19d"></use><use xlink:href="#bbburst-shape-10" width="49.77830589289654" opacity="0.2960988765023045" transform="matrix(0.951459997128332,-0.3077724384420322,0.3077724384420322,0.951459997128332,480.2136466544006,-53.012552733772736)" fill="none" stroke="#ff5c58"></use><use xlink:href="#bbburst-shape-13" width="45.65823875336306" opacity="0.29914111260922027" transform="matrix(0.7617624832650337,-0.6478564031403018,0.6478564031403018,0.7617624832650337,16.292147554378346,346.8397757701519)" fill="none" stroke="#ffa6d5"></use><use xlink:href="#bbburst-shape-8" width="9.272527184440692" opacity="0.9224440896767458" transform="matrix(0.9745893315356752,-0.22399918494683374,0.22399918494683374,0.9745893315356752,-74.30152307907781,-313.81573944269854)" fill="none" stroke="#00a19d"></use><use xlink:href="#bbburst-shape-10" width="30.964126064279853" opacity="0.2937800437515913" transform="matrix(0.8326228812947671,-0.5538403538425131,0.5538403538425131,0.8326228812947671,-34.8307306142209,352.952929763442)" fill="none" stroke="#ffbd9b"></use><use xlink:href="#bbburst-shape-8" width="26.29998022349542" opacity="0.3469382746444061" transform="matrix(0.9131568428820097,-0.4076083663245404,0.4076083663245404,0.9131568428820097,-52.378940203034205,281.5340553435387)" fill="none" stroke="#2c2891"></use><use xlink:href="#bbburst-shape-9" width="7.142159516705699" opacity="0.9497417310525138" transform="matrix(0.9470954658836107,0.32095198784663487,-0.32095198784663487,0.9470954658836107,172.85028017192758,-364.6158756270958)" fill="none" stroke="#ff5c58"></use><use xlink:href="#bbburst-shape-10" width="21.941798908025486" opacity="0.7172271898007415" transform="matrix(0.9118597970250146,-0.4105017790089333,0.4105017790089333,0.9118597970250146,49.269765693203425,-186.97853429256347)" fill="none" stroke="#ffa6d5"></use><use xlink:href="#bbburst-shape-4" width="16.397979247278155" opacity="0.8212791300363267" transform="matrix(0.8140150384150296,-0.5808437976204772,0.5808437976204772,0.8140150384150296,-104.89645279828264,-202.69355368973493)" fill="#ffa6d5"></use><use xlink:href="#bbburst-shape-4" width="20.72162599311415" opacity="0.5457273745722029" transform="matrix(0.9999111614692466,0.013329259890264454,-0.013329259890264454,0.9999111614692466,68.49983202840998,48.198755731702875)" fill="#ffbd9b"></use><use xlink:href="#bbburst-shape-10" width="13.726816272429986" opacity="0.7122920257363002" transform="matrix(0.9354118134006612,-0.3535600929834796,0.3535600929834796,0.9354118134006612,-122.65587295608445,-85.13483954716395)" fill="none" stroke="#ff5c58"></use><use xlink:href="#bbburst-shape-4" width="17.80647793710284" opacity="0.7903492695200298" transform="matrix(0.9969450486955702,-0.07810614496559905,0.07810614496559905,0.9969450486955702,53.27741359463835,-210.36765115300264)" fill="#2c2891"></use><use xlink:href="#bbburst-shape-11" width="33.540235601892626" opacity="0.24168665980163395" transform="matrix(0.9068635381021776,0.4214243980369437,-0.4214243980369437,0.9068635381021776,253.9496114711601,381.4320235638007)" fill="none" stroke="#2c2891"></use><use xlink:href="#bbburst-shape-9" width="44.831565514998964" opacity="0.2648228417743673" transform="matrix(0.97991094279841,0.19943556398980453,-0.19943556398980453,0.97991094279841,647.1728785439591,42.82150352326079)" fill="none" stroke="#ffa6d5"></use><use xlink:href="#bbburst-shape-14" width="60.511139505714645" opacity="0.1087797240780678" transform="matrix(0.8735904074162375,0.48666189502603574,-0.48666189502603574,0.8735904074162375,898.0201940921293,147.40621988677458)" fill="none" stroke="#ffa6d5"></use><use xlink:href="#bbburst-shape-1" width="30.157275213013282" opacity="0.2620500063316127" transform="matrix(0.9831773320261069,0.18265358958976496,-0.18265358958976496,0.9831773320261069,88.18046460207316,341.35503934417426)" fill="#ffa6d5"></use><use xlink:href="#bbburst-shape-14" width="11.43977120400984" opacity="0.8946124400771164" transform="matrix(0.9998248326512856,0.01871641028158477,-0.01871641028158477,0.9998248326512856,21.922885818916278,-296.57931293843205)" fill="none" stroke="#00a19d"></use><use xlink:href="#bbburst-shape-10" width="38.247688398087476" opacity="0.5887474520886299" transform="matrix(0.8148074735212427,-0.5797316457585607,0.5797316457585607,0.8148074735212427,55.33311788601293,-36.56312400421905)" fill="none" stroke="#00a19d"></use><use xlink:href="#bbburst-shape-11" width="25.907355044575237" opacity="0.6285934358999843" transform="matrix(0.7574491180209609,-0.6528941978676701,0.6528941978676701,0.7574491180209609,-41.50581857084367,-2.9032529483874896)" fill="none" stroke="#2c2891"></use><use xlink:href="#bbburst-shape-4" width="22.278542774356946" opacity="0.6018373862464471" transform="matrix(0.8078856700393245,0.5893392436832215,-0.5893392436832215,0.8078856700393245,316.7179585111845,58.15631443849844)" fill="#ffbd9b"></use><use xlink:href="#bbburst-shape-14" width="8.981862324878044" opacity="0.9275919296111831" transform="matrix(0.9860766927313439,-0.16629117851532246,0.16629117851532246,0.9860766927313439,-0.969014356003342,-375.0549796385757)" fill="none" stroke="#ff5c58"></use><use xlink:href="#bbburst-shape-10" width="20.018419345943798" opacity="0.6721042976246738" transform="matrix(0.9514897376759799,0.3076804821520128,-0.3076804821520128,0.9514897376759799,135.1704371796252,-56.493493900532826)" fill="none" stroke="#2c2891"></use><use xlink:href="#bbburst-shape-1" width="11.030957081026646" opacity="0.8752626155207623" transform="matrix(0.9598244136447137,-0.28060130963981894,0.28060130963981894,0.9598244136447137,-4.4752561294894235,-329.66232158831946)" fill="#00a19d"></use><use xlink:href="#bbburst-shape-13" width="14.738864131152788" opacity="0.7436653339137342" transform="matrix(0.8327827702280028,-0.5535999075247154,0.5535999075247154,0.8327827702280028,-4.057197108238881,-203.54908832911934)" fill="none" stroke="#00a19d"></use><use xlink:href="#bbburst-shape-1" width="13.93225411392324" opacity="0.8645289669035905" transform="matrix(0.7596046210026085,-0.6503851318653306,0.6503851318653306,0.7596046210026085,-168.79272614687903,-204.36130563144417)" fill="#00a19d"></use><use xlink:href="#bbburst-shape-8" width="71.96732282778879" opacity="0.1597407506194245" transform="matrix(0.9831252445957271,-0.18293374056906975,0.18293374056906975,0.9831252445957271,487.4482365145399,205.63463734824626)" fill="none" stroke="#2c2891"></use><use xlink:href="#bbburst-shape-13" width="17.570597369010883" opacity="0.8280889817024063" transform="matrix(0.8171476505614816,0.5764284146204546,-0.5764284146204546,0.8171476505614816,240.71593928956344,-160.88720773508726)" fill="none" stroke="#ffa6d5"></use><use xlink:href="#bbburst-shape-9" width="27.39440630595569" opacity="0.42713988449796547" transform="matrix(0.8346369405291921,0.5508004879301305,-0.5508004879301305,0.8346369405291921,237.6597017819963,230.58891923556922)" fill="none" stroke="#2c2891"></use><use xlink:href="#bbburst-shape-10" width="16.630209339956775" opacity="0.6124257216709867" transform="matrix(0.9442671418636818,-0.3291801403435412,0.3291801403435412,0.9442671418636818,246.6472227547447,-342.017978894529)" fill="none" stroke="#ff5c58"></use><use xlink:href="#bbburst-shape-14" width="21.528882699458325" opacity="0.6467179834874739" transform="matrix(0.9989738570732699,0.045290538572134505,-0.045290538572134505,0.9989738570732699,296.89491391596886,-197.6163316457606)" fill="none" stroke="#ffa6d5"></use><use xlink:href="#bbburst-shape-4" width="0.024905920289631962" opacity="0.8115655373241075" transform="matrix(0.9996734528074843,0.02555362502586295,-0.02555362502586295,0.9996734528074843,198.64346128999227,-399.84438459225726)" fill="#00a19d"></use><use xlink:href="#bbburst-shape-11" width="26.41311711022105" opacity="0.6148944144879586" transform="matrix(0.9976702315166889,-0.06822103154773014,0.06822103154773014,0.9976702315166889,145.65812604056447,-61.37743548035712)" fill="none" stroke="#2c2891"></use><use xlink:href="#bbburst-shape-4" width="25.54370131625924" opacity="0.5106070595607759" transform="matrix(0.8159370094108233,-0.5781408104205429,0.5781408104205429,0.8159370094108233,150.98621924179625,-26.856750171279486)" fill="#2c2891"></use><use xlink:href="#bbburst-shape-14" width="19.678231653680847" opacity="0.6249889367702317" transform="matrix(0.9614507472813223,-0.27497720005881765,0.27497720005881765,0.9614507472813223,245.1598593875762,-294.1122168444911)" fill="none" stroke="#2c2891"></use><use xlink:href="#bbburst-shape-14" width="27.54580808267444" opacity="0.48120673413504467" transform="matrix(0.8299102388709217,0.5578969397811835,-0.5578969397811835,0.8299102388709217,697.3371139565063,-157.1052450680817)" fill="none" stroke="#2c2891"></use><use xlink:href="#bbburst-shape-13" width="18.544145470299803" opacity="0.754610109386743" transform="matrix(0.9960262739345715,0.08905987666740751,-0.08905987666740751,0.9960262739345715,104.19570848743984,-166.50837854748218)" fill="none" stroke="#ffbd9b"></use><use xlink:href="#bbburst-shape-4" width="21.185715272559616" opacity="0.5454389128975646" transform="matrix(0.99507932129008,-0.09908150352549992,0.09908150352549992,0.99507932129008,-28.154528549877778,57.06453443654294)" fill="#ffa6d5"></use><use xlink:href="#bbburst-shape-10" width="12.448733972475436" opacity="0.8517706170315176" transform="matrix(0.7443010044211484,-0.6678443043237471,0.6678443043237471,0.7443010044211484,-125.4946622607776,-269.5775522659007)" fill="none" stroke="#2c2891"></use><use xlink:href="#bbburst-shape-9" width="18.190509233050122" opacity="0.7206477391279165" transform="matrix(0.7952809119412523,-0.606241099812517,0.606241099812517,0.7952809119412523,-64.42801965202167,-103.7141234761607)" fill="none" stroke="#2c2891"></use><use xlink:href="#bbburst-shape-4" width="27.402223153950803" opacity="0.5738973959799972" transform="matrix(0.9876970034223609,-0.15637976029681358,0.15637976029681358,0.9876970034223609,321.8990670147691,-240.67624163217445)" fill="#ffa6d5"></use><use xlink:href="#bbburst-shape-4" width="13.970606180174103" opacity="0.8631648464710142" transform="matrix(0.8136816579235094,0.581310725480658,-0.581310725480658,0.8136816579235094,248.3848162348284,-194.395705596806)" fill="#00a19d"></use><use xlink:href="#bbburst-shape-9" width="17.63039362663286" opacity="0.6307091748692497" transform="matrix(0.9289788315825336,-0.3701328551635894,0.3701328551635894,0.9289788315825336,-127.63576360203967,-0.2613897506373064)" fill="none" stroke="#ffa6d5"></use><use xlink:href="#bbburst-shape-9" width="27.057458051554892" opacity="0.5567636787149916" transform="matrix(0.733281145400654,0.6799255560720636,-0.6799255560720636,0.733281145400654,694.6153818674891,-205.41939629585113)" fill="none" stroke="#ffa6d5"></use><use xlink:href="#bbburst-shape-8" width="21.20015583283494" opacity="0.6667694208944296" transform="matrix(0.8043138961971108,0.5942046418400173,-0.5942046418400173,0.8043138961971108,468.5162820283581,-96.18523838245028)" fill="none" stroke="#2c2891"></use><use xlink:href="#bbburst-shape-9" width="23.18580869915254" opacity="0.6427619284921404" transform="matrix(0.9909734841852013,-0.13405802341464962,0.13405802341464962,0.9909734841852013,264.56063669420155,-257.4345962444539)" fill="none" stroke="#00a19d"></use><use xlink:href="#bbburst-shape-8" width="15.474428906336936" opacity="0.6714333373344794" transform="matrix(0.9943461674492828,-0.10618709563276842,0.10618709563276842,0.9943461674492828,273.0069701715425,-337.6395512205511)" fill="none" stroke="#2c2891"></use><use xlink:href="#bbburst-shape-1" width="16.183447134745546" opacity="0.6890575670136778" transform="matrix(0.8707299526063144,-0.4917614763624796,0.4917614763624796,0.8707299526063144,92.28910024143204,-249.15285576123154)" fill="#ffbd9b"></use><use xlink:href="#bbburst-shape-9" width="50.127696142083295" opacity="0.18141369902300508" transform="matrix(0.9986563922706934,0.051820943419460495,-0.051820943419460495,0.9986563922706934,442.3252929924486,284.9211500477191)" fill="none" stroke="#00a19d"></use><use xlink:href="#bbburst-shape-14" width="12.802638156377004" opacity="0.8230626465162121" transform="matrix(0.9653436567814291,-0.26098203829355476,0.26098203829355476,0.9653436567814291,58.21780202402557,-331.36281659867393)" fill="none" stroke="#ffa6d5"></use><use xlink:href="#bbburst-shape-13" width="14.709181407991982" opacity="0.7891571335189167" transform="matrix(0.9275760536528909,-0.3736343997676464,0.3736343997676464,0.9275760536528909,48.82453288509893,-319.4091403209751)" fill="none" stroke="#ffa6d5"></use><use xlink:href="#bbburst-shape-1" width="14.494322108091389" opacity="0.9299235505695925" transform="matrix(0.9993390685505099,0.03635142457455106,-0.03635142457455106,0.9993390685505099,56.06544629467566,-349.6574583327839)" fill="#ffa6d5"></use><use xlink:href="#bbburst-shape-9" width="36.02082850951672" opacity="0.23682251090423145" transform="matrix(0.9727607232711065,-0.23181150804279252,0.23181150804279252,0.9727607232711065,648.6085244908065,-304.5634724301931)" fill="none" stroke="#ffbd9b"></use><use xlink:href="#bbburst-shape-14" width="26.230006155911607" opacity="0.42660317663954417" transform="matrix(0.9165294189969182,-0.3999672788031186,0.3999672788031186,0.9165294189969182,-76.50102273550428,204.05571047170884)" fill="none" stroke="#00a19d"></use><use xlink:href="#bbburst-shape-14" width="16.39028142802925" opacity="0.8233868819837848" transform="matrix(0.8426290353919582,-0.5384944834577398,0.5384944834577398,0.8426290353919582,-120.04673621150887,-188.61213942405243)" fill="none" stroke="#2c2891"></use><use xlink:href="#bbburst-shape-1" width="44.279232048994565" opacity="0.17842163184271687" transform="matrix(0.8770308198801312,-0.4804341172110748,0.4804341172110748,0.8770308198801312,128.62385564203552,407.7136868279886)" fill="#ffa6d5"></use><use xlink:href="#bbburst-shape-14" width="12.124501394547169" opacity="0.7339271304935797" transform="matrix(0.9999395253619972,-0.010997527850559017,0.010997527850559017,0.9999395253619972,255.07739391818728,-383.0320013406893)" fill="none" stroke="#ffa6d5"></use><use xlink:href="#bbburst-shape-10" width="23.861608405419982" opacity="0.6830831046960774" transform="matrix(0.7631655718008359,-0.646202994435884,0.646202994435884,0.7631655718008359,-94.26936706125767,-32.23117420296529)" fill="none" stroke="#ff5c58"></use><use xlink:href="#bbburst-shape-8" width="15.465107229616827" opacity="0.6953841082506225" transform="matrix(0.7807309455613818,0.6248673384349919,-0.6248673384349919,0.7807309455613818,547.9837268007561,-298.95978526142886)" fill="none" stroke="#00a19d"></use><use xlink:href="#bbburst-shape-8" width="36.35371698590974" opacity="0.32167486338516105" transform="matrix(0.8043405098871761,0.5941686159285405,-0.5941686159285405,0.8043405098871761,594.213479015632,235.23167030532602)" fill="none" stroke="#2c2891"></use><use xlink:href="#bbburst-shape-10" width="32.34684664284302" opacity="0.5165975130363611" transform="matrix(0.7183545731069566,0.6956771573771285,-0.6956771573771285,0.7183545731069566,503.93263838553145,122.56719785660817)" fill="none" stroke="#2c2891"></use><use xlink:href="#bbburst-shape-8" width="19.314204766864695" opacity="0.8638860857768861" transform="matrix(0.9921196675200618,0.12529391573369483,-0.12529391573369483,0.9921196675200618,103.00228080204704,-277.12384278152376)" fill="none" stroke="#2c2891"></use><use xlink:href="#bbburst-shape-10" width="14.800080026641767" opacity="0.7750310161455716" transform="matrix(0.9998112681913167,-0.019427506213379145,0.019427506213379145,0.9998112681913167,164.68815086403475,-264.6429868086031)" fill="none" stroke="#00a19d"></use><use xlink:href="#bbburst-shape-9" width="24.59044260806892" opacity="0.5921598404203162" transform="matrix(0.9881818953444154,-0.1532858170657643,0.1532858170657643,0.9881818953444154,277.4657094912328,-185.79251943253587)" fill="none" stroke="#ffa6d5"></use><use xlink:href="#bbburst-shape-8" width="15.719384070405972" opacity="0.7528593354882613" transform="matrix(0.9016045912986796,0.4325611644023778,-0.4325611644023778,0.9016045912986796,407.212299782468,-310.51332706861893)" fill="none" stroke="#00a19d"></use><use xlink:href="#bbburst-shape-4" width="16.37157607672542" opacity="0.8987595707405678" transform="matrix(0.7393665660084857,-0.673303112326699,0.673303112326699,0.7393665660084857,-218.59059944059067,-206.40014382891428)" fill="#ffbd9b"></use><use xlink:href="#bbburst-shape-10" width="9.388346970740189" opacity="0.8774412937051095" transform="matrix(0.9998697347786467,0.016140429786059618,-0.016140429786059618,0.9998697347786467,123.19121379624193,-383.41853093075486)" fill="none" stroke="#2c2891"></use><use xlink:href="#bbburst-shape-8" width="28.722361005438756" opacity="0.5744422549826349" transform="matrix(0.9067388223789132,0.42169267007016087,-0.42169267007016087,0.9067388223789132,314.88502139739944,25.894199601878938)" fill="none" stroke="#ffbd9b"></use><use xlink:href="#bbburst-shape-10" width="46.6610175292158" opacity="0.24985233591377898" transform="matrix(0.8193241892941786,-0.5733305092504993,0.5733305092504993,0.8193241892941786,473.2452217379582,-109.70459740751502)" fill="none" stroke="#ffbd9b"></use><use xlink:href="#bbburst-shape-4" width="32.48280434890136" opacity="0.47608916945157" transform="matrix(0.7644024299431906,0.6447394241838679,-0.6447394241838679,0.7644024299431906,757.8013742043452,-206.70802016292055)" fill="#2c2891"></use><use xlink:href="#bbburst-shape-8" width="11.0872425926295" opacity="0.9481857125165902" transform="matrix(0.8640919602021069,-0.5033339689650209,0.5033339689650209,0.8640919602021069,-194.2860843942939,-292.40257624207044)" fill="none" stroke="#ffbd9b"></use><use xlink:href="#bbburst-shape-13" width="18.75794828549042" opacity="0.6582171732040935" transform="matrix(0.7532929366753391,-0.6576851462174309,0.6576851462174309,0.7532929366753391,-200.27883600618242,39.41816033043665)" fill="none" stroke="#ffbd9b"></use><use xlink:href="#bbburst-shape-14" width="13.624696902176487" opacity="0.8078229702511454" transform="matrix(0.9998993429188767,0.014188165152638528,-0.014188165152638528,0.9998993429188767,167.33171981954513,-307.5695169790758)" fill="none" stroke="#ffa6d5"></use><use xlink:href="#bbburst-shape-11" width="14.343118073611269" opacity="0.7920251044338027" transform="matrix(0.9915895821996723,0.12942217921623536,-0.12942217921623536,0.9915895821996723,75.61954963484713,-192.08639967505098)" fill="none" stroke="#00a19d"></use><use xlink:href="#bbburst-shape-9" width="8.338231529651058" opacity="0.9564645731137287" transform="matrix(0.9161906765145961,0.40074261598652927,-0.40074261598652927,0.9161906765145961,183.98839921261913,-334.43886038624856)" fill="none" stroke="#2c2891"></use><use xlink:href="#bbburst-shape-11" width="35.488957983192805" opacity="0.41813685763749076" transform="matrix(0.8344942594495128,0.5510166340010155,-0.5510166340010155,0.8344942594495128,477.3737059479127,170.66933290937402)" fill="none" stroke="#ffa6d5"></use><use xlink:href="#bbburst-shape-8" width="18.094578158517617" opacity="0.7320271246743675" transform="matrix(0.8241485246603588,-0.5663737364145286,0.5663737364145286,0.8241485246603588,17.30218860901519,-231.50972369660997)" fill="none" stroke="#00a19d"></use><use xlink:href="#bbburst-shape-13" width="34.97973991745302" opacity="0.5122499293517365" transform="matrix(0.8533726413955672,0.5213013858772606,-0.5213013858772606,0.8533726413955672,623.9731812509897,-120.95636306944377)" fill="none" stroke="#ff5c58"></use><use xlink:href="#bbburst-shape-10" width="31.94804761110516" opacity="0.5052036188541835" transform="matrix(0.9969449003714445,0.07810803814826349,-0.07810803814826349,0.9969449003714445,508.8580827504829,-364.7884262757967)" fill="none" stroke="#2c2891"></use><use xlink:href="#bbburst-shape-8" width="31.98403538472902" opacity="0.35043106134094404" transform="matrix(0.959873392716511,-0.28043371757849433,0.28043371757849433,0.959873392716511,-83.71822009593537,268.62551671696235)" fill="none" stroke="#2c2891"></use><use xlink:href="#bbburst-shape-1" width="11.925328689516565" opacity="0.8246120654780922" transform="matrix(0.9952523536433231,0.09732806669931227,-0.09732806669931227,0.9952523536433231,207.58928344956183,-381.9956487610333)" fill="#ffbd9b"></use><use xlink:href="#bbburst-shape-13" width="35.341009518930484" opacity="0.32248551099094824" transform="matrix(0.981506538890154,-0.19142861362886826,0.19142861362886826,0.981506538890154,581.664173914395,-338.0491856116882)" fill="none" stroke="#00a19d"></use></svg>