<svg xmlns="http://www.w3.org/2000/svg" version="1.1" xmlns:xlink="http://www.w3.org/1999/xlink" xmlns:svgjs="http://svgjs.dev/svgjs" viewBox="0 0 1422 800"><defs><linearGradient x1="50%" y1="0%" x2="50%" y2="100%" id="oooscillate-grad"><stop stop-color="hsl(206, 75%, 49%)" stop-opacity="1" offset="0%"></stop><stop stop-color="hsl(331, 90%, 56%)" stop-opacity="1" offset="100%"></stop></linearGradient></defs><g stroke-width="2.5" stroke="url(#oooscillate-grad)" fill="none" stroke-linecap="round"><path d="M 0 750 Q 355.5 -15 711 400 Q 1066.5 815 1422 750" stroke-dasharray="21 1" opacity="0.12"></path><path d="M 0 725 Q 355.5 -15 711 400 Q 1066.5 815 1422 725" stroke-dasharray="6 3" opacity="0.75"></path><path d="M 0 700 Q 355.5 -15 711 400 Q 1066.5 815 1422 700" stroke-dasharray="8 24" opacity="0.58"></path><path d="M 0 675 Q 355.5 -15 711 400 Q 1066.5 815 1422 675" stroke-dasharray="15 27" opacity="0.99"></path><path d="M 0 650 Q 355.5 -15 711 400 Q 1066.5 815 1422 650" stroke-dasharray="18 30" opacity="0.74"></path><path d="M 0 625 Q 355.5 -15 711 400 Q 1066.5 815 1422 625" stroke-dasharray="21 0" opacity="0.35"></path><path d="M 0 600 Q 355.5 -15 711 400 Q 1066.5 815 1422 600" stroke-dasharray="24 27" opacity="0.12"></path><path d="M 0 575 Q 355.5 -15 711 400 Q 1066.5 815 1422 575" stroke-dasharray="7 10" opacity="0.30"></path><path d="M 0 550 Q 355.5 -15 711 400 Q 1066.5 815 1422 550" stroke-dasharray="5 4" opacity="0.22"></path><path d="M 0 525 Q 355.5 -15 711 400 Q 1066.5 815 1422 525" stroke-dasharray="19 0" opacity="0.29"></path><path d="M 0 500 Q 355.5 -15 711 400 Q 1066.5 815 1422 500" stroke-dasharray="10 1" opacity="0.43"></path><path d="M 0 475 Q 355.5 -15 711 400 Q 1066.5 815 1422 475" stroke-dasharray="7 9" opacity="0.74"></path><path d="M 0 450 Q 355.5 -15 711 400 Q 1066.5 815 1422 450" stroke-dasharray="8 23" opacity="0.86"></path><path d="M 0 425 Q 355.5 -15 711 400 Q 1066.5 815 1422 425" stroke-dasharray="7 30" opacity="0.42"></path><path d="M 0 400 Q 355.5 -15 711 400 Q 1066.5 815 1422 400" stroke-dasharray="28 15" opacity="0.92"></path><path d="M 0 375 Q 355.5 -15 711 400 Q 1066.5 815 1422 375" stroke-dasharray="21 9" opacity="0.59"></path><path d="M 0 350 Q 355.5 -15 711 400 Q 1066.5 815 1422 350" stroke-dasharray="8 26" opacity="0.95"></path><path d="M 0 325 Q 355.5 -15 711 400 Q 1066.5 815 1422 325" stroke-dasharray="20 17" opacity="0.25"></path><path d="M 0 300 Q 355.5 -15 711 400 Q 1066.5 815 1422 300" stroke-dasharray="16 15" opacity="0.14"></path><path d="M 0 275 Q 355.5 -15 711 400 Q 1066.5 815 1422 275" stroke-dasharray="21 25" opacity="0.35"></path><path d="M 0 250 Q 355.5 -15 711 400 Q 1066.5 815 1422 250" stroke-dasharray="14 26" opacity="0.72"></path><path d="M 0 225 Q 355.5 -15 711 400 Q 1066.5 815 1422 225" stroke-dasharray="13 9" opacity="0.29"></path><path d="M 0 200 Q 355.5 -15 711 400 Q 1066.5 815 1422 200" stroke-dasharray="8 15" opacity="0.37"></path><path d="M 0 175 Q 355.5 -15 711 400 Q 1066.5 815 1422 175" stroke-dasharray="3 5" opacity="0.34"></path><path d="M 0 150 Q 355.5 -15 711 400 Q 1066.5 815 1422 150" stroke-dasharray="27 5" opacity="0.52"></path><path d="M 0 125 Q 355.5 -15 711 400 Q 1066.5 815 1422 125" stroke-dasharray="27 2" opacity="1.00"></path><path d="M 0 100 Q 355.5 -15 711 400 Q 1066.5 815 1422 100" stroke-dasharray="12 29" opacity="0.85"></path><path d="M 0 75 Q 355.5 -15 711 400 Q 1066.5 815 1422 75" stroke-dasharray="2 9" opacity="1.00"></path><path d="M 0 50 Q 355.5 -15 711 400 Q 1066.5 815 1422 50" stroke-dasharray="11 27" opacity="0.83"></path></g></svg>