<svg xmlns="http://www.w3.org/2000/svg" version="1.1" xmlns:xlink="http://www.w3.org/1999/xlink" xmlns:svgjs="http://svgjs.dev/svgjs" viewBox="0 0 1422 800"><circle r="16.5" cx="448" cy="379" fill="hsl(256, 50%, 50%)" opacity="0.46"></circle><circle r="15.5" cx="755" cy="590" fill="hsl(217, 50%, 50%)" opacity="0.74"></circle><circle r="7.5" cx="68" cy="338" fill="hsl(76, 50%, 50%)" opacity="0.14"></circle><circle r="17.5" cx="1178" cy="522" stroke-width="2" stroke="hsl(332, 50%, 50%)" fill="none" opacity="0.93"></circle><circle r="14" cx="28" cy="40" fill="hsl(162, 50%, 50%)" opacity="0.43"></circle><circle r="10" cx="1243" cy="413" fill="hsl(338, 50%, 50%)" opacity="0.40"></circle><circle r="10.5" cx="169" cy="350" stroke-width="2" stroke="hsl(101, 50%, 50%)" fill="none" opacity="0.35"></circle><circle r="17" cx="963" cy="448" stroke-width="2" stroke="hsl(223, 50%, 50%)" fill="none" opacity="0.98"></circle><circle r="10.5" cx="80" cy="592" fill="hsl(76, 50%, 50%)" opacity="0.20"></circle><circle r="13" cx="568" cy="518" stroke-width="2" stroke="hsl(272, 50%, 50%)" fill="none" opacity="0.77"></circle><circle r="18" cx="620" cy="531" fill="hsl(265, 50%, 50%)" opacity="0.42"></circle><circle r="15" cx="1313" cy="620" stroke-width="2" stroke="hsl(311, 50%, 50%)" fill="none" opacity="0.56"></circle><circle r="13.5" cx="216" cy="179" stroke-width="2" stroke="hsl(121, 50%, 50%)" fill="none" opacity="0.23"></circle><circle r="17" cx="334" cy="512" fill="hsl(200, 50%, 50%)" opacity="0.38"></circle><circle r="11.5" cx="1398" cy="250" stroke-width="2" stroke="hsl(272, 50%, 50%)" fill="none" opacity="0.23"></circle><circle r="11.5" cx="1144" cy="576" stroke-width="2" stroke="hsl(325, 50%, 50%)" fill="none" opacity="0.70"></circle><circle r="19.5" cx="1126" cy="238" fill="hsl(315, 50%, 50%)" opacity="0.36"></circle><circle r="18.5" cx="1110" cy="699" fill="hsl(304, 50%, 50%)" opacity="0.56"></circle><circle r="13" cx="1178" cy="572" fill="hsl(332, 50%, 50%)" opacity="0.76"></circle><circle r="13" cx="1227" cy="442" stroke-width="2" stroke="hsl(338, 50%, 50%)" fill="none" opacity="0.49"></circle><circle r="20" cx="1384" cy="763" fill="hsl(272, 50%, 50%)" opacity="0.21"></circle><circle r="14.5" cx="1178" cy="650" stroke-width="2" stroke="hsl(337, 50%, 50%)" fill="none" opacity="0.72"></circle><circle r="12.5" cx="1110" cy="600" fill="hsl(304, 50%, 50%)" opacity="0.88"></circle><circle r="21.5" cx="1129" cy="101" stroke-width="2" stroke="hsl(264, 50%, 50%)" fill="none" opacity="0.15"></circle><circle r="15.5" cx="338" cy="710" fill="hsl(200, 50%, 50%)" opacity="0.20"></circle><circle r="14.5" cx="1161" cy="722" fill="hsl(332, 50%, 50%)" opacity="0.30"></circle><circle r="17.5" cx="352" cy="383" stroke-width="2" stroke="hsl(200, 50%, 50%)" fill="none" opacity="0.59"></circle><circle r="16" cx="791" cy="692" fill="hsl(202, 50%, 50%)" opacity="0.95"></circle><circle r="8" cx="110" cy="334" fill="hsl(80, 50%, 50%)" opacity="0.88"></circle><circle r="11.5" cx="1149" cy="620" fill="hsl(325, 50%, 50%)" opacity="0.22"></circle><circle r="13" cx="392" cy="686" stroke-width="2" stroke="hsl(225, 50%, 50%)" fill="none" opacity="0.72"></circle><circle r="8.5" cx="110" cy="442" fill="hsl(80, 50%, 50%)" opacity="0.11"></circle><circle r="15.5" cx="1028" cy="493" fill="hsl(263, 50%, 50%)" opacity="0.27"></circle><circle r="14" cx="331" cy="769" fill="hsl(186, 50%, 50%)" opacity="0.64"></circle><circle r="11" cx="1351" cy="718" stroke-width="2" stroke="hsl(299, 50%, 50%)" fill="none" opacity="0.68"></circle><circle r="13" cx="526" cy="521" fill="hsl(271, 50%, 50%)" opacity="0.75"></circle><circle r="10" cx="98" cy="714" stroke-width="2" stroke="hsl(80, 50%, 50%)" fill="none" opacity="0.12"></circle><circle r="10" cx="119" cy="32" stroke-width="2" stroke="hsl(164, 50%, 50%)" fill="none" opacity="0.90"></circle><circle r="14.5" cx="534" cy="91" fill="hsl(255, 50%, 50%)" opacity="0.33"></circle><circle r="12.5" cx="1009" cy="329" fill="hsl(249, 50%, 50%)" opacity="0.18"></circle><circle r="9.5" cx="138" cy="238" stroke-width="2" stroke="hsl(92, 50%, 50%)" fill="none" opacity="0.81"></circle><circle r="12" cx="805" cy="384" fill="hsl(196, 50%, 50%)" opacity="0.49"></circle><circle r="17.5" cx="1022" cy="411" stroke-width="2" stroke="hsl(249, 50%, 50%)" fill="none" opacity="0.86"></circle><circle r="10.5" cx="206" cy="84" stroke-width="2" stroke="hsl(145, 50%, 50%)" fill="none" opacity="0.42"></circle><circle r="17.5" cx="895" cy="321" fill="hsl(197, 50%, 50%)" opacity="0.78"></circle><circle r="17" cx="1257" cy="582" fill="hsl(335, 50%, 50%)" opacity="0.51"></circle><circle r="17.5" cx="720" cy="769" stroke-width="2" stroke="hsl(226, 50%, 50%)" fill="none" opacity="0.27"></circle><circle r="13.5" cx="532" cy="240" fill="hsl(271, 50%, 50%)" opacity="0.41"></circle><circle r="13.5" cx="640" cy="79" fill="hsl(248, 50%, 50%)" opacity="0.29"></circle><circle r="12" cx="103" cy="653" fill="hsl(80, 50%, 50%)" opacity="0.32"></circle><circle r="15.5" cx="886" cy="48" fill="hsl(150, 50%, 50%)" opacity="0.86"></circle><circle r="13.5" cx="697" cy="83" fill="hsl(226, 50%, 50%)" opacity="0.90"></circle><circle r="20" cx="1028" cy="677" stroke-width="2" stroke="hsl(263, 50%, 50%)" fill="none" opacity="0.38"></circle><circle r="20" cx="369" cy="571" stroke-width="2" stroke="hsl(213, 50%, 50%)" fill="none" opacity="0.69"></circle><circle r="18" cx="389" cy="329" stroke-width="2" stroke="hsl(225, 50%, 50%)" fill="none" opacity="0.10"></circle><circle r="16.5" cx="659" cy="28" stroke-width="2" stroke="hsl(244, 50%, 50%)" fill="none" opacity="0.61"></circle><circle r="14.5" cx="1102" cy="645" stroke-width="2" stroke="hsl(304, 50%, 50%)" fill="none" opacity="0.61"></circle><circle r="17.5" cx="1087" cy="379" stroke-width="2" stroke="hsl(291, 50%, 50%)" fill="none" opacity="0.18"></circle><circle r="14" cx="1000" cy="596" fill="hsl(249, 50%, 50%)" opacity="0.73"></circle><circle r="13.5" cx="144" cy="172" fill="hsl(96, 50%, 50%)" opacity="0.29"></circle><circle r="8.5" cx="85" cy="480" stroke-width="2" stroke="hsl(76, 50%, 50%)" fill="none" opacity="0.74"></circle><circle r="11.5" cx="499" cy="485" stroke-width="2" stroke="hsl(268, 50%, 50%)" fill="none" opacity="0.35"></circle><circle r="17.5" cx="1049" cy="743" fill="hsl(278, 50%, 50%)" opacity="0.75"></circle><circle r="8.5" cx="1045" cy="786" stroke-width="2" stroke="hsl(278, 50%, 50%)" fill="none" opacity="0.64"></circle><circle r="10.5" cx="244" cy="112" fill="hsl(135, 50%, 50%)" opacity="0.16"></circle><circle r="14.5" cx="995" cy="91" fill="hsl(185, 50%, 50%)" opacity="0.74"></circle><circle r="18.5" cx="1266" cy="683" fill="hsl(335, 50%, 50%)" opacity="0.74"></circle><circle r="18" cx="1269" cy="752" stroke-width="2" stroke="hsl(329, 50%, 50%)" fill="none" opacity="0.51"></circle><circle r="11.5" cx="187" cy="24" stroke-width="2" stroke="hsl(167, 50%, 50%)" fill="none" opacity="0.98"></circle><circle r="19" cx="1122" cy="499" fill="hsl(315, 50%, 50%)" opacity="0.42"></circle><circle r="10.5" cx="175" cy="721" stroke-width="2" stroke="hsl(101, 50%, 50%)" fill="none" opacity="0.92"></circle><circle r="11" cx="851" cy="453" stroke-width="2" stroke="hsl(191, 50%, 50%)" fill="none" opacity="0.59"></circle><circle r="20.5" cx="1049" cy="258" fill="hsl(278, 50%, 50%)" opacity="0.71"></circle><circle r="11.5" cx="380" cy="221" stroke-width="2" stroke="hsl(225, 50%, 50%)" fill="none" opacity="0.82"></circle><circle r="11" cx="341" cy="448" stroke-width="2" stroke="hsl(200, 50%, 50%)" fill="none" opacity="0.85"></circle><circle r="17.5" cx="1320" cy="774" stroke-width="2" stroke="hsl(311, 50%, 50%)" fill="none" opacity="0.38"></circle><circle r="16" cx="395" cy="157" stroke-width="2" stroke="hsl(216, 50%, 50%)" fill="none" opacity="0.34"></circle><circle r="17" cx="424" cy="732" stroke-width="2" stroke="hsl(247, 50%, 50%)" fill="none" opacity="0.16"></circle><circle r="18" cx="1134" cy="443" stroke-width="2" stroke="hsl(325, 50%, 50%)" fill="none" opacity="0.73"></circle><circle r="11.5" cx="296" cy="447" stroke-width="2" stroke="hsl(172, 50%, 50%)" fill="none" opacity="0.68"></circle><circle r="12.5" cx="760" cy="388" fill="hsl(209, 50%, 50%)" opacity="0.43"></circle><circle r="16" cx="458" cy="240" stroke-width="2" stroke="hsl(256, 50%, 50%)" fill="none" opacity="0.21"></circle><circle r="13.5" cx="1241" cy="22" stroke-width="2" stroke="hsl(257, 50%, 50%)" fill="none" opacity="0.58"></circle><circle r="13.5" cx="948" cy="563" fill="hsl(212, 50%, 50%)" opacity="0.57"></circle><circle r="11" cx="938" cy="364" stroke-width="2" stroke="hsl(212, 50%, 50%)" fill="none" opacity="0.98"></circle><circle r="15" cx="463" cy="79" fill="hsl(232, 50%, 50%)" opacity="0.73"></circle><circle r="14.5" cx="238" cy="455" stroke-width="2" stroke="hsl(133, 50%, 50%)" fill="none" opacity="0.92"></circle><circle r="18" cx="324" cy="645" fill="hsl(186, 50%, 50%)" opacity="0.94"></circle><circle r="11" cx="230" cy="390" stroke-width="2" stroke="hsl(133, 50%, 50%)" fill="none" opacity="0.88"></circle><circle r="17.5" cx="1013" cy="214" fill="hsl(249, 50%, 50%)" opacity="0.41"></circle><circle r="7" cx="1142" cy="770" stroke-width="2" stroke="hsl(325, 50%, 50%)" fill="none" opacity="0.69"></circle><circle r="21.5" cx="666" cy="703" stroke-width="2" stroke="hsl(252, 50%, 50%)" fill="none" opacity="0.95"></circle><circle r="11" cx="810" cy="454" stroke-width="2" stroke="hsl(196, 50%, 50%)" fill="none" opacity="0.66"></circle><circle r="9" cx="184" cy="242" stroke-width="2" stroke="hsl(110, 50%, 50%)" fill="none" opacity="0.88"></circle><circle r="15.5" cx="642" cy="132" fill="hsl(250, 50%, 50%)" opacity="0.39"></circle><circle r="22" cx="1339" cy="450" fill="hsl(299, 50%, 50%)" opacity="0.89"></circle><circle r="19.5" cx="1098" cy="303" fill="hsl(304, 50%, 50%)" opacity="0.19"></circle><circle r="11" cx="195" cy="297" fill="hsl(110, 50%, 50%)" opacity="0.67"></circle><circle r="15.5" cx="262" cy="32" fill="hsl(174, 50%, 50%)" opacity="0.84"></circle><circle r="15.5" cx="1376" cy="636" fill="hsl(286, 50%, 50%)" opacity="0.80"></circle><circle r="11" cx="237" cy="338" fill="hsl(133, 50%, 50%)" opacity="0.54"></circle><circle r="16" cx="1053" cy="338" stroke-width="2" stroke="hsl(278, 50%, 50%)" fill="none" opacity="0.48"></circle><circle r="17.5" cx="265" cy="609" fill="hsl(145, 50%, 50%)" opacity="0.19"></circle><circle r="13" cx="385" cy="774" stroke-width="2" stroke="hsl(225, 50%, 50%)" fill="none" opacity="0.50"></circle><circle r="19.5" cx="1387" cy="300" fill="hsl(272, 50%, 50%)" opacity="0.71"></circle><circle r="13" cx="1264" cy="110" fill="hsl(314, 50%, 50%)" opacity="0.59"></circle><circle r="11.5" cx="233" cy="236" stroke-width="2" stroke="hsl(133, 50%, 50%)" fill="none" opacity="0.70"></circle><circle r="16.5" cx="831" cy="329" fill="hsl(192, 50%, 50%)" opacity="0.21"></circle><circle r="11" cx="470" cy="460" stroke-width="2" stroke="hsl(263, 50%, 50%)" fill="none" opacity="0.64"></circle><circle r="18.5" cx="1204" cy="704" stroke-width="2" stroke="hsl(339, 50%, 50%)" fill="none" opacity="0.21"></circle><circle r="19.5" cx="522" cy="595" fill="hsl(271, 50%, 50%)" opacity="0.31"></circle><circle r="11" cx="458" cy="647" stroke-width="2" stroke="hsl(256, 50%, 50%)" fill="none" opacity="0.46"></circle><circle r="12.5" cx="129" cy="105" stroke-width="2" stroke="hsl(120, 50%, 50%)" fill="none" opacity="0.32"></circle><circle r="23.5" cx="575" cy="307" fill="hsl(272, 50%, 50%)" opacity="0.83"></circle><circle r="21.5" cx="1243" cy="276" fill="hsl(338, 50%, 50%)" opacity="0.46"></circle><circle r="19.5" cx="659" cy="402" stroke-width="2" stroke="hsl(252, 50%, 50%)" fill="none" opacity="0.46"></circle><circle r="14" cx="404" cy="512" fill="hsl(237, 50%, 50%)" opacity="0.57"></circle><circle r="13" cx="741" cy="222" fill="hsl(217, 50%, 50%)" opacity="0.85"></circle><circle r="31.5" cx="1370" cy="49" stroke-width="2" stroke="hsl(286, 50%, 50%)" fill="none" opacity="0.77"></circle><circle r="19" cx="1209" cy="327" stroke-width="2" stroke="hsl(339, 50%, 50%)" fill="none" opacity="0.54"></circle><circle r="12.5" cx="503" cy="48" stroke-width="2" stroke="hsl(247, 50%, 50%)" fill="none" opacity="0.94"></circle><circle r="14" cx="1294" cy="232" stroke-width="2" stroke="hsl(321, 50%, 50%)" fill="none" opacity="0.10"></circle><circle r="14.5" cx="1218" cy="555" stroke-width="2" stroke="hsl(339, 50%, 50%)" fill="none" opacity="0.34"></circle><circle r="9.5" cx="78" cy="35" stroke-width="2" stroke="hsl(163, 50%, 50%)" fill="none" opacity="0.71"></circle><circle r="12" cx="1242" cy="379" fill="hsl(338, 50%, 50%)" opacity="0.68"></circle><circle r="8.5" cx="29" cy="566" fill="hsl(72, 50%, 50%)" opacity="0.55"></circle><circle r="13" cx="464" cy="23" stroke-width="2" stroke="hsl(237, 50%, 50%)" fill="none" opacity="0.15"></circle><circle r="14.5" cx="468" cy="131" stroke-width="2" stroke="hsl(243, 50%, 50%)" fill="none" opacity="0.48"></circle><circle r="15.5" cx="1264" cy="517" stroke-width="2" stroke="hsl(335, 50%, 50%)" fill="none" opacity="0.64"></circle><circle r="15" cx="690" cy="245" stroke-width="2" stroke="hsl(235, 50%, 50%)" fill="none" opacity="0.36"></circle><circle r="17" cx="1105" cy="551" stroke-width="2" stroke="hsl(304, 50%, 50%)" fill="none" opacity="0.62"></circle><circle r="16.5" cx="1270" cy="471" stroke-width="2" stroke="hsl(329, 50%, 50%)" fill="none" opacity="0.11"></circle><circle r="16" cx="1263" cy="152" fill="hsl(329, 50%, 50%)" opacity="0.44"></circle><circle r="18.5" cx="326" cy="45" stroke-width="2" stroke="hsl(182, 50%, 50%)" fill="none" opacity="0.48"></circle><circle r="14.5" cx="761" cy="492" fill="hsl(209, 50%, 50%)" opacity="0.60"></circle><circle r="14.5" cx="1356" cy="532" stroke-width="2" stroke="hsl(286, 50%, 50%)" fill="none" opacity="0.70"></circle><circle r="9.5" cx="155" cy="62" fill="hsl(150, 50%, 50%)" opacity="0.90"></circle><circle r="20.5" cx="1162" cy="299" stroke-width="2" stroke="hsl(332, 50%, 50%)" fill="none" opacity="0.46"></circle><circle r="14" cx="529" cy="195" stroke-width="2" stroke="hsl(271, 50%, 50%)" fill="none" opacity="0.86"></circle><circle r="14" cx="792" cy="244" fill="hsl(202, 50%, 50%)" opacity="0.22"></circle><circle r="8" cx="24" cy="331" fill="hsl(72, 50%, 50%)" opacity="0.60"></circle><circle r="18.5" cx="1240" cy="220" stroke-width="2" stroke="hsl(338, 50%, 50%)" fill="none" opacity="0.74"></circle><circle r="10.5" cx="1119" cy="742" fill="hsl(315, 50%, 50%)" opacity="0.51"></circle><circle r="27" cx="854" cy="744" stroke-width="2" stroke="hsl(191, 50%, 50%)" fill="none" opacity="0.85"></circle><circle r="11" cx="583" cy="18" fill="hsl(261, 50%, 50%)" opacity="0.88"></circle><circle r="9.5" cx="270" cy="780" fill="hsl(159, 50%, 50%)" opacity="0.66"></circle><circle r="23.5" cx="1051" cy="138" fill="hsl(253, 50%, 50%)" opacity="0.46"></circle><circle r="18" cx="157" cy="570" stroke-width="2" stroke="hsl(101, 50%, 50%)" fill="none" opacity="0.28"></circle><circle r="18.5" cx="1194" cy="380" fill="hsl(337, 50%, 50%)" opacity="0.66"></circle><circle r="15.5" cx="485" cy="682" fill="hsl(263, 50%, 50%)" opacity="0.32"></circle><circle r="13.5" cx="1350" cy="206" fill="hsl(299, 50%, 50%)" opacity="0.22"></circle><circle r="17.5" cx="1193" cy="206" stroke-width="2" stroke="hsl(337, 50%, 50%)" fill="none" opacity="0.41"></circle><circle r="13" cx="1008" cy="538" fill="hsl(249, 50%, 50%)" opacity="0.73"></circle><circle r="19" cx="1287" cy="65" fill="hsl(295, 50%, 50%)" opacity="0.44"></circle><circle r="13" cx="288" cy="229" fill="hsl(159, 50%, 50%)" opacity="1.00"></circle><circle r="17" cx="1210" cy="153" stroke-width="2" stroke="hsl(327, 50%, 50%)" fill="none" opacity="0.94"></circle><circle r="16.5" cx="474" cy="773" stroke-width="2" stroke="hsl(263, 50%, 50%)" fill="none" opacity="0.30"></circle><circle r="22.5" cx="1274" cy="339" fill="hsl(329, 50%, 50%)" opacity="0.25"></circle><circle r="17" cx="1396" cy="130" stroke-width="2" stroke="hsl(284, 50%, 50%)" fill="none" opacity="0.64"></circle><circle r="14" cx="1309" cy="577" stroke-width="2" stroke="hsl(321, 50%, 50%)" fill="none" opacity="0.62"></circle><circle r="12" cx="257" cy="284" stroke-width="2" stroke="hsl(145, 50%, 50%)" fill="none" opacity="0.82"></circle><circle r="13.5" cx="737" cy="427" stroke-width="2" stroke="hsl(217, 50%, 50%)" fill="none" opacity="0.84"></circle><circle r="18.5" cx="890" cy="242" stroke-width="2" stroke="hsl(197, 50%, 50%)" fill="none" opacity="0.90"></circle><circle r="12" cx="282" cy="137" stroke-width="2" stroke="hsl(152, 50%, 50%)" fill="none" opacity="0.93"></circle><circle r="14" cx="571" cy="58" stroke-width="2" stroke="hsl(256, 50%, 50%)" fill="none" opacity="0.64"></circle><circle r="12" cx="1387" cy="188" stroke-width="2" stroke="hsl(272, 50%, 50%)" fill="none" opacity="0.78"></circle><circle r="16.5" cx="878" cy="627" fill="hsl(193, 50%, 50%)" opacity="0.71"></circle><circle r="11" cx="1048" cy="601" stroke-width="2" stroke="hsl(278, 50%, 50%)" fill="none" opacity="0.96"></circle><circle r="10.5" cx="86" cy="263" fill="hsl(76, 50%, 50%)" opacity="0.88"></circle><circle r="11.5" cx="300" cy="337" stroke-width="2" stroke="hsl(172, 50%, 50%)" fill="none" opacity="0.65"></circle><circle r="11.5" cx="1170" cy="771" fill="hsl(332, 50%, 50%)" opacity="0.27"></circle><circle r="19.5" cx="699" cy="479" stroke-width="2" stroke="hsl(235, 50%, 50%)" fill="none" opacity="0.38"></circle><circle r="15.5" cx="1201" cy="611" fill="hsl(339, 50%, 50%)" opacity="0.97"></circle><circle r="25.5" cx="594" cy="759" stroke-width="2" stroke="hsl(269, 50%, 50%)" fill="none" opacity="0.36"></circle><circle r="15" cx="420" cy="279" stroke-width="2" stroke="hsl(237, 50%, 50%)" fill="none" opacity="0.91"></circle><circle r="10" cx="187" cy="775" fill="hsl(110, 50%, 50%)" opacity="0.91"></circle><circle r="14" cx="450" cy="557" stroke-width="2" stroke="hsl(256, 50%, 50%)" fill="none" opacity="0.56"></circle><circle r="15.5" cx="547" cy="458" stroke-width="2" stroke="hsl(272, 50%, 50%)" fill="none" opacity="0.44"></circle><circle r="15.5" cx="196" cy="658" fill="hsl(110, 50%, 50%)" opacity="0.42"></circle><circle r="15.5" cx="401" cy="635" stroke-width="2" stroke="hsl(237, 50%, 50%)" fill="none" opacity="0.20"></circle><circle r="10" cx="124" cy="392" stroke-width="2" stroke="hsl(86, 50%, 50%)" fill="none" opacity="0.39"></circle><circle r="16.5" cx="837" cy="208" stroke-width="2" stroke="hsl(192, 50%, 50%)" fill="none" opacity="0.22"></circle><circle r="21.5" cx="1333" cy="140" fill="hsl(304, 50%, 50%)" opacity="0.27"></circle><circle r="9" cx="135" cy="295" stroke-width="2" stroke="hsl(92, 50%, 50%)" fill="none" opacity="0.35"></circle><circle r="12" cx="911" cy="437" stroke-width="2" stroke="hsl(197, 50%, 50%)" fill="none" opacity="0.47"></circle><circle r="12.5" cx="283" cy="387" stroke-width="2" stroke="hsl(159, 50%, 50%)" fill="none" opacity="0.32"></circle><circle r="19" cx="589" cy="597" fill="hsl(269, 50%, 50%)" opacity="0.14"></circle><circle r="5.5" cx="84" cy="402" stroke-width="2" stroke="hsl(76, 50%, 50%)" fill="none" opacity="0.12"></circle><circle r="13" cx="354" cy="262" fill="hsl(200, 50%, 50%)" opacity="0.94"></circle><circle r="12" cx="321" cy="294" stroke-width="2" stroke="hsl(186, 50%, 50%)" fill="none" opacity="0.71"></circle><circle r="14.5" cx="591" cy="138" stroke-width="2" stroke="hsl(260, 50%, 50%)" fill="none" opacity="0.41"></circle><circle r="16.5" cx="815" cy="607" fill="hsl(196, 50%, 50%)" opacity="0.10"></circle><circle r="16" cx="952" cy="37" stroke-width="2" stroke="hsl(135, 50%, 50%)" fill="none" opacity="0.19"></circle><circle r="14" cx="829" cy="76" fill="hsl(168, 50%, 50%)" opacity="0.13"></circle><circle r="15" cx="1314" cy="521" fill="hsl(311, 50%, 50%)" opacity="0.15"></circle><circle r="14.5" cx="972" cy="172" stroke-width="2" stroke="hsl(213, 50%, 50%)" fill="none" opacity="0.36"></circle><circle r="13" cx="647" cy="481" stroke-width="2" stroke="hsl(252, 50%, 50%)" fill="none" opacity="0.52"></circle><circle r="17.5" cx="810" cy="523" stroke-width="2" stroke="hsl(196, 50%, 50%)" fill="none" opacity="0.23"></circle><circle r="13" cx="755" cy="82" fill="hsl(207, 50%, 50%)" opacity="0.70"></circle><circle r="13" cx="1222" cy="744" stroke-width="2" stroke="hsl(338, 50%, 50%)" fill="none" opacity="0.20"></circle><circle r="11" cx="1020" cy="24" fill="hsl(150, 50%, 50%)" opacity="0.11"></circle><circle r="13" cx="1064" cy="635" stroke-width="2" stroke="hsl(278, 50%, 50%)" fill="none" opacity="0.17"></circle><circle r="20.5" cx="1352" cy="345" fill="hsl(299, 50%, 50%)" opacity="0.80"></circle><circle r="15.5" cx="876" cy="545" stroke-width="2" stroke="hsl(193, 50%, 50%)" fill="none" opacity="0.88"></circle><circle r="9.5" cx="811" cy="31" fill="hsl(171, 50%, 50%)" opacity="0.52"></circle><circle r="22" cx="1130" cy="177" fill="hsl(306, 50%, 50%)" opacity="0.40"></circle><circle r="19.5" cx="1318" cy="680" fill="hsl(311, 50%, 50%)" opacity="0.20"></circle><circle r="29.5" cx="954" cy="729" stroke-width="2" stroke="hsl(212, 50%, 50%)" fill="none" opacity="0.36"></circle><circle r="22.5" cx="753" cy="312" fill="hsl(217, 50%, 50%)" opacity="0.80"></circle><circle r="21.5" cx="620" cy="653" stroke-width="2" stroke="hsl(265, 50%, 50%)" fill="none" opacity="0.94"></circle><circle r="15" cx="406" cy="412" fill="hsl(237, 50%, 50%)" opacity="0.91"></circle><circle r="15.5" cx="1397" cy="506" fill="hsl(272, 50%, 50%)" opacity="0.73"></circle><circle r="16" cx="967" cy="507" stroke-width="2" stroke="hsl(223, 50%, 50%)" fill="none" opacity="0.35"></circle><circle r="16.5" cx="640" cy="213" stroke-width="2" stroke="hsl(259, 50%, 50%)" fill="none" opacity="0.53"></circle><circle r="7" cx="432" cy="199" fill="hsl(247, 50%, 50%)" opacity="0.19"></circle><circle r="12" cx="29" cy="645" stroke-width="2" stroke="hsl(72, 50%, 50%)" fill="none" opacity="0.17"></circle><circle r="9" cx="518" cy="15" stroke-width="2" stroke="hsl(258, 50%, 50%)" fill="none" opacity="0.58"></circle><circle r="6" cx="33" cy="499" stroke-width="2" stroke="hsl(72, 50%, 50%)" fill="none" opacity="0.96"></circle><circle r="17.5" cx="953" cy="262" fill="hsl(212, 50%, 50%)" opacity="0.21"></circle><circle r="17.5" cx="587" cy="372" stroke-width="2" stroke="hsl(269, 50%, 50%)" fill="none" opacity="0.53"></circle><circle r="16.5" cx="710" cy="169" stroke-width="2" stroke="hsl(233, 50%, 50%)" fill="none" opacity="0.65"></circle><circle r="9" cx="28" cy="277" stroke-width="2" stroke="hsl(72, 50%, 50%)" fill="none" opacity="0.46"></circle><circle r="13.5" cx="1213" cy="781" stroke-width="2" stroke="hsl(339, 50%, 50%)" fill="none" opacity="0.98"></circle><circle r="12" cx="1077" cy="495" stroke-width="2" stroke="hsl(291, 50%, 50%)" fill="none" opacity="0.41"></circle><circle r="16.5" cx="260" cy="723" stroke-width="2" stroke="hsl(145, 50%, 50%)" fill="none" opacity="0.94"></circle><circle r="12" cx="1109" cy="777" stroke-width="2" stroke="hsl(304, 50%, 50%)" fill="none" opacity="0.13"></circle><circle r="12.5" cx="589" cy="424" stroke-width="2" stroke="hsl(269, 50%, 50%)" fill="none" opacity="0.73"></circle><circle r="17" cx="1395" cy="689" fill="hsl(272, 50%, 50%)" opacity="0.96"></circle><circle r="17.5" cx="509" cy="284" stroke-width="2" stroke="hsl(268, 50%, 50%)" fill="none" opacity="0.13"></circle><circle r="12.5" cx="62" cy="199" fill="hsl(74, 50%, 50%)" opacity="0.52"></circle><circle r="11" cx="859" cy="410" fill="hsl(191, 50%, 50%)" opacity="0.95"></circle><circle r="15" cx="1055" cy="551" fill="hsl(278, 50%, 50%)" opacity="0.56"></circle><circle r="9.5" cx="107" cy="773" stroke-width="2" stroke="hsl(80, 50%, 50%)" fill="none" opacity="0.93"></circle><circle r="14.5" cx="726" cy="27" stroke-width="2" stroke="hsl(217, 50%, 50%)" fill="none" opacity="0.23"></circle><circle r="13.5" cx="385" cy="459" stroke-width="2" stroke="hsl(225, 50%, 50%)" fill="none" opacity="0.43"></circle><circle r="16.5" cx="692" cy="631" stroke-width="2" stroke="hsl(235, 50%, 50%)" fill="none" opacity="0.74"></circle><circle r="16.5" cx="1230" cy="647" fill="hsl(338, 50%, 50%)" opacity="0.18"></circle><circle r="9" cx="414" cy="221" stroke-width="2" stroke="hsl(237, 50%, 50%)" fill="none" opacity="0.19"></circle><circle r="21" cx="537" cy="707" stroke-width="2" stroke="hsl(272, 50%, 50%)" fill="none" opacity="0.22"></circle><circle r="8.5" cx="770" cy="27" fill="hsl(194, 50%, 50%)" opacity="0.73"></circle><circle r="9" cx="296" cy="180" fill="hsl(172, 50%, 50%)" opacity="0.89"></circle><circle r="12" cx="605" cy="461" fill="hsl(265, 50%, 50%)" opacity="0.70"></circle><circle r="11.5" cx="336" cy="204" fill="hsl(200, 50%, 50%)" opacity="0.85"></circle><circle r="18.5" cx="397" cy="74" fill="hsl(205, 50%, 50%)" opacity="0.35"></circle><circle r="16.5" cx="533" cy="144" fill="hsl(258, 50%, 50%)" opacity="0.98"></circle><circle r="15" cx="591" cy="206" stroke-width="2" stroke="hsl(269, 50%, 50%)" fill="none" opacity="0.29"></circle><circle r="6.5" cx="17" cy="464" stroke-width="2" stroke="hsl(72, 50%, 50%)" fill="none" opacity="0.91"></circle><circle r="19.5" cx="1143" cy="385" fill="hsl(325, 50%, 50%)" opacity="0.13"></circle><circle r="10.5" cx="444" cy="439" fill="hsl(247, 50%, 50%)" opacity="0.60"></circle><circle r="13" cx="738" cy="656" fill="hsl(217, 50%, 50%)" opacity="0.95"></circle><circle r="13.5" cx="502" cy="437" stroke-width="2" stroke="hsl(268, 50%, 50%)" fill="none" opacity="0.89"></circle><circle r="11.5" cx="971" cy="312" fill="hsl(223, 50%, 50%)" opacity="0.71"></circle><circle r="13" cx="454" cy="602" fill="hsl(256, 50%, 50%)" opacity="0.86"></circle><circle r="5.5" cx="15" cy="214" fill="hsl(72, 50%, 50%)" opacity="0.38"></circle><circle r="13" cx="896" cy="493" stroke-width="2" stroke="hsl(197, 50%, 50%)" fill="none" opacity="0.89"></circle><circle r="19" cx="521" cy="385" fill="hsl(271, 50%, 50%)" opacity="0.24"></circle><circle r="8" cx="1409" cy="211" fill="hsl(258, 50%, 50%)" opacity="0.80"></circle><circle r="17" cx="1065" cy="446" fill="hsl(278, 50%, 50%)" opacity="0.29"></circle><circle r="23" cx="691" cy="562" fill="hsl(235, 50%, 50%)" opacity="0.90"></circle><circle r="14" cx="732" cy="708" fill="hsl(226, 50%, 50%)" opacity="0.85"></circle><circle r="17.5" cx="254" cy="532" stroke-width="2" stroke="hsl(145, 50%, 50%)" fill="none" opacity="0.46"></circle><circle r="7.5" cx="67" cy="530" fill="hsl(76, 50%, 50%)" opacity="0.86"></circle><circle r="17.5" cx="345" cy="124" fill="hsl(183, 50%, 50%)" opacity="0.88"></circle><circle r="12" cx="458" cy="176" fill="hsl(247, 50%, 50%)" opacity="0.70"></circle><circle r="11" cx="405" cy="19" fill="hsl(227, 50%, 50%)" opacity="0.87"></circle><circle r="19" cx="792" cy="140" stroke-width="2" stroke="hsl(195, 50%, 50%)" fill="none" opacity="0.32"></circle><circle r="13" cx="32" cy="746" stroke-width="2" stroke="hsl(72, 50%, 50%)" fill="none" opacity="0.61"></circle><circle r="18" cx="1191" cy="472" fill="hsl(337, 50%, 50%)" opacity="0.65"></circle><circle r="18" cx="1389" cy="584" stroke-width="2" stroke="hsl(272, 50%, 50%)" fill="none" opacity="0.45"></circle><circle r="15.5" cx="1297" cy="187" stroke-width="2" stroke="hsl(321, 50%, 50%)" fill="none" opacity="0.10"></circle><circle r="19" cx="647" cy="292" stroke-width="2" stroke="hsl(252, 50%, 50%)" fill="none" opacity="0.98"></circle><circle r="18" cx="872" cy="144" fill="hsl(179, 50%, 50%)" opacity="0.97"></circle><circle r="19" cx="1306" cy="398" stroke-width="2" stroke="hsl(321, 50%, 50%)" fill="none" opacity="0.15"></circle><circle r="16.5" cx="49" cy="121" fill="hsl(101, 50%, 50%)" opacity="0.16"></circle><circle r="16.5" cx="936" cy="124" fill="hsl(181, 50%, 50%)" opacity="0.43"></circle><circle r="12.5" cx="481" cy="520" stroke-width="2" stroke="hsl(263, 50%, 50%)" fill="none" opacity="0.40"></circle><circle r="17.5" cx="474" cy="328" fill="hsl(263, 50%, 50%)" opacity="0.49"></circle><circle r="6.5" cx="52" cy="417" stroke-width="2" stroke="hsl(74, 50%, 50%)" fill="none" opacity="0.98"></circle><circle r="15.5" cx="165" cy="485" fill="hsl(101, 50%, 50%)" opacity="0.17"></circle><circle r="11.5" cx="726" cy="123" fill="hsl(220, 50%, 50%)" opacity="0.70"></circle><circle r="16.5" cx="1396" cy="416" stroke-width="2" stroke="hsl(272, 50%, 50%)" fill="none" opacity="0.36"></circle><circle r="18.5" cx="1325" cy="267" stroke-width="2" stroke="hsl(311, 50%, 50%)" fill="none" opacity="0.38"></circle><circle r="7.5" cx="23" cy="392" fill="hsl(72, 50%, 50%)" opacity="0.91"></circle><circle r="17.5" cx="1086" cy="45" stroke-width="2" stroke="hsl(201, 50%, 50%)" fill="none" opacity="0.34"></circle><circle r="18" cx="940" cy="623" stroke-width="2" stroke="hsl(212, 50%, 50%)" fill="none" opacity="0.68"></circle><circle r="13.5" cx="976" cy="384" fill="hsl(223, 50%, 50%)" opacity="0.72"></circle><circle r="13.5" cx="1146" cy="668" stroke-width="2" stroke="hsl(325, 50%, 50%)" fill="none" opacity="0.39"></circle><circle r="12" cx="181" cy="409" fill="hsl(110, 50%, 50%)" opacity="0.20"></circle><circle r="21.5" cx="1187" cy="69" stroke-width="2" stroke="hsl(283, 50%, 50%)" fill="none" opacity="0.27"></circle><circle r="13" cx="893" cy="383" fill="hsl(197, 50%, 50%)" opacity="0.47"></circle><circle r="18" cx="685" cy="345" fill="hsl(244, 50%, 50%)" opacity="1.00"></circle><circle r="12.5" cx="442" cy="495" fill="hsl(247, 50%, 50%)" opacity="0.88"></circle></svg>